<svg xmlns="http://www.w3.org/2000/svg" width="29.851" height="33.171" viewBox="0 0 29.851 33.171">
  <g id="log-out-Bold" transform="translate(-64.014 -42.667)">
    <path id="log-out-Bold-2" data-name="log-out-Bold" d="M80.6,74.179a1.658,1.658,0,0,1-1.659,1.659H72.307a8.3,8.3,0,0,1-8.293-8.293V50.96a8.3,8.3,0,0,1,8.293-8.293h6.634a1.659,1.659,0,0,1,0,3.317H72.307a4.981,4.981,0,0,0-4.976,4.976V67.545a4.981,4.981,0,0,0,4.976,4.976h6.634A1.658,1.658,0,0,1,80.6,74.179ZM93.74,59.886a1.664,1.664,0,0,0-.359-1.808l-6.633-6.633A1.658,1.658,0,0,0,84.4,53.791l3.8,3.8H75.624a1.659,1.659,0,1,0,0,3.317H88.205l-3.8,3.8a1.658,1.658,0,0,0,2.345,2.345l6.633-6.633A1.655,1.655,0,0,0,93.74,59.886Z" fill="#343434"/>
  </g>
</svg>
