<svg id="Composant_2_1" data-name="Composant 2 – 1" xmlns="http://www.w3.org/2000/svg" width="31.502" height="27.001" viewBox="0 0 31.502 27.001">
  <g id="Icon_ionic-ios-eye-off" data-name="Icon ionic-ios-eye-off" transform="translate(0.007)" opacity="0.003">
    <path id="Tracé_336" data-name="Tracé 336" d="M6.209,4.788A1,1,0,0,0,4.8,6.2l25,25.01a.991.991,0,0,0,.963.253.974.974,0,0,0,.45-.26,1,1,0,0,0,0-1.406Z" transform="translate(-2.252 -4.499)"/>
    <g id="Groupe_111" data-name="Groupe 111" transform="translate(0 3.376)">
      <path id="Tracé_337" data-name="Tracé 337" d="M18.3,24.321a6.322,6.322,0,0,1-6.012-9.028L8.529,11.531a49.321,49.321,0,0,0-5.984,5.716,1.112,1.112,0,0,0-.007,1.5c4.563,5.041,8.585,9.38,15.448,9.38a13.538,13.538,0,0,0,5.787-1.35l-3.059-3.059A6.389,6.389,0,0,1,18.3,24.321Z" transform="translate(-2.252 -7.875)"/>
      <path id="Tracé_338" data-name="Tracé 338" d="M33.455,18.7a1.1,1.1,0,0,0,.035-1.455c-3.677-4.465-8.775-9.373-15.5-9.373A13.162,13.162,0,0,0,12.22,9.211l3.073,3.073a6.2,6.2,0,0,1,2.412-.6,6.322,6.322,0,0,1,6.012,9.028l3.762,3.762A46.51,46.51,0,0,0,33.455,18.7Z" transform="translate(-2.252 -7.875)"/>
      <path id="Tracé_339" data-name="Tracé 339" d="M13.514,18.345a4.518,4.518,0,0,0,4.141,4.141A4.4,4.4,0,0,0,19.3,22.3L13.69,16.692A4.6,4.6,0,0,0,13.514,18.345Z" transform="translate(-2.252 -7.875)"/>
      <path id="Tracé_340" data-name="Tracé 340" d="M22.5,18c0-.091-.007-.183-.007-.274a3.118,3.118,0,0,1-1.28.274c-.077,0-.148,0-.218-.007L22.3,19.308A4.5,4.5,0,0,0,22.5,18Z" transform="translate(-2.252 -7.875)"/>
      <path id="Tracé_341" data-name="Tracé 341" d="M18,14.7a3.3,3.3,0,0,1,.218-1.188c-.07,0-.141-.007-.218-.007a4.448,4.448,0,0,0-1.3.2l1.315,1.315C18.007,14.906,18,14.8,18,14.7Z" transform="translate(-2.252 -7.875)"/>
    </g>
  </g>
  <g id="Icon_ionic-ios-eye" data-name="Icon ionic-ios-eye" transform="translate(0 3.376)">
    <path id="Tracé_334" data-name="Tracé 334" d="M17.986,7.875c-5.653,0-10.111,3.558-15.441,9.373a1.112,1.112,0,0,0-.007,1.5c4.563,5.041,8.585,9.38,15.448,9.38,6.778,0,11.862-5.463,15.476-9.422a1.1,1.1,0,0,0,.035-1.455C29.813,12.783,24.715,7.875,17.986,7.875ZM18.3,24.321A6.328,6.328,0,1,1,24.321,18.3,6.331,6.331,0,0,1,18.3,24.321Z" transform="translate(-2.252 -7.875)"/>
    <path id="Tracé_335" data-name="Tracé 335" d="M18,14.7a3.3,3.3,0,0,1,.218-1.188c-.07,0-.141-.007-.218-.007A4.5,4.5,0,1,0,22.5,18c0-.091-.007-.183-.007-.274a3.118,3.118,0,0,1-1.28.274A3.264,3.264,0,0,1,18,14.7Z" transform="translate(-2.252 -7.875)"/>
  </g>
</svg>
